<?xml version="1.0" encoding="UTF-8" standalone="no"?>
<!-- Created with Inkscape (http://www.inkscape.org/) -->

<svg
   width="210mm"
   height="297mm"
   viewBox="0 0 210 297"
   version="1.1"
   id="svg1"
   inkscape:version="1.3-dev (d527fd6ec, 2023-01-07)"
   sodipodi:docname="logo-j.svg"
   xmlns:inkscape="http://www.inkscape.org/namespaces/inkscape"
   xmlns:sodipodi="http://sodipodi.sourceforge.net/DTD/sodipodi-0.dtd"
   xmlns="http://www.w3.org/2000/svg"
   xmlns:svg="http://www.w3.org/2000/svg">
  <sodipodi:namedview
     id="namedview1"
     pagecolor="#ffffff"
     bordercolor="#000000"
     borderopacity="0.25"
     inkscape:showpageshadow="2"
     inkscape:pageopacity="0.0"
     inkscape:pagecheckerboard="0"
     inkscape:deskcolor="#d1d1d1"
     inkscape:document-units="mm"
     inkscape:zoom="0.84096521"
     inkscape:cx="526.1811"
     inkscape:cy="616.55345"
     inkscape:window-width="1920"
     inkscape:window-height="1133"
     inkscape:window-x="-9"
     inkscape:window-y="-9"
     inkscape:window-maximized="1"
     inkscape:current-layer="layer1" />
  <defs
     id="defs1" />
  <g
     inkscape:label="Layer 1"
     inkscape:groupmode="layer"
     id="layer1">
    <path
       style="fill:#d6bd2c;fill-opacity:0.849765;stroke-width:0.264583"
       d="m 53.564317,66.206879 86.146203,-28.609624 22.7435,9.330204 -89.039258,34.051248 z"
       id="path3"
       sodipodi:nodetypes="ccccc" />
    <path
       style="fill:#e8c91d;fill-opacity:0.630303;stroke-width:0.264583"
       d="M 53.832862,66.534992 73.463453,80.69968 73.084494,104.79937 53.421646,90.389079 Z"
       id="path4"
       sodipodi:nodetypes="ccccc" />
    <path
       style="fill:#876412;fill-opacity:0.849765;stroke-width:0.264583"
       d="m 162.34322,46.956834 c -4.15302,54.040876 5.66075,135.254056 -5.68085,153.585566 -27.06515,44.49827 -86.517047,22.2922 -105.465894,-4.84418 l 13.884862,-20.2937 c 34.060448,39.57787 70.323642,31.62841 75.265572,3.12766 L 139.69299,81.209381 73.043191,104.78111 73.445186,80.954731 Z"
       id="path5"
       sodipodi:nodetypes="ccccccccc" />
    <path
       style="fill:#e8ce1a;fill-opacity:0.63;stroke-width:0.264583"
       d="m 123.26131,86.852736 c 0.15731,29.613824 3.81905,68.296064 0.39328,89.549354 -19.69561,31.01827 -46.42043,13.68053 -58.471181,-0.98704 l -16.858294,-11.41262 -13.723284,17.76262 16.625025,14.03848 c 4.628595,-6.88758 9.44893,-14.22643 13.923394,-20.54579 5.186271,7.30606 14.620814,16.23886 25.645178,21.79242 17.978682,9.05681 42.372652,8.83896 49.267882,-16.29316 2.09233,-5.87434 -0.5768,-65.79375 -0.31462,-99.477169 z"
       id="path6"
       sodipodi:nodetypes="cccccccsccc" />
    <path
       style="fill:#e0c130;fill-opacity:0.63;stroke-width:0.264583"
       d="m 34.716242,181.6409 6.04208,10.10129 c 3.124944,4.44211 29.044012,23.73221 34.610351,24.19595 -5.364029,-1.21417 -20.944412,-14.58335 -24.302502,-20.63342 z"
       id="path7"
       inkscape:transform-center-x="-2.8920967"
       inkscape:transform-center-y="-1.9466036"
       sodipodi:nodetypes="ccccc" />
  </g>
</svg>
